HIERARCHY
ROOT Hips
{
  OFFSET -69.4423 88.0299 51.6846
  CHANNELS 6 Xposition Yposition Zposition Zrotation Xrotation Yrotation
  JOINT Spine
  {
    OFFSET 12.0259 -0.162853 1.93176e-005
    CHANNELS 3 Zrotation Xrotation Yrotation
    JOINT Spine1
    {
      OFFSET 15.3169 -0.0121909 0
      CHANNELS 3 Zrotation Xrotation Yrotation
      JOINT Spine2
      {
        OFFSET 15.3176 -0.0121922 0
        CHANNELS 3 Zrotation Xrotation Yrotation
        JOINT Neck
        {
          OFFSET 19.9142 1.56236 0
          CHANNELS 3 Zrotation Xrotation Yrotation
          JOINT Head
          {
            OFFSET 6.92646 0 0
            CHANNELS 3 Zrotation Xrotation Yrotation
            End Site
            {
              OFFSET 20.7666 0 0
            }
          }
          JOINT LeftShoulder
          {
            OFFSET -4.94072 -1.14703 8.14416
            CHANNELS 3 Zrotation Xrotation Yrotation
            JOINT LeftArm
            {
              OFFSET 14.108 0 -2.74767e-005
              CHANNELS 3 Zrotation Xrotation Yrotation
              JOINT LeftForeArm
              {
                OFFSET 28.5802 -0.0783412 -0.0284884
                CHANNELS 3 Zrotation Xrotation Yrotation
                JOINT LeftHand
                {
                  OFFSET 27.092 0 0
                  CHANNELS 3 Zrotation Xrotation Yrotation
                  End Site
                  {
                    OFFSET 9.55928 -0.186424 0.145352
                  }
                }
              }
            }
          }
          JOINT RightShoulder
          {
            OFFSET -7.15748 -1.33027 -6.24935
            CHANNELS 3 Zrotation Xrotation Yrotation
            JOINT RightArm
            {
              OFFSET 14.108 0 1.82997e-005
              CHANNELS 3 Zrotation Xrotation Yrotation
              JOINT RightForeArm
              {
                OFFSET 28.5802 -0.0707221 2.30684e-005
                CHANNELS 3 Zrotation Xrotation Yrotation
                JOINT RightHand
                {
                  OFFSET 27.092 0 -1.30073e-005
                  CHANNELS 3 Zrotation Xrotation Yrotation
                  End Site
                  {
                    OFFSET 9.55929 -0.186417 -0.145354
                  }
                }
              }
            }
          }
        }
      }
    }
  }
  JOINT LeftUpLeg
  {
    OFFSET 0.00499725 -0.534999 8.837
    CHANNELS 3 Zrotation Xrotation Yrotation
    JOINT LeftLeg
    {
      OFFSET 39.9035 -0.00124594 0.000252775
      CHANNELS 3 Zrotation Xrotation Yrotation
      JOINT LeftFoot
      {
        OFFSET 39.6689 0 0
        CHANNELS 3 Zrotation Xrotation Yrotation
        JOINT LeftToe
        {
          OFFSET 10.1624 13.6296 0
          CHANNELS 3 Zrotation Xrotation Yrotation
          End Site
          {
            OFFSET 8.38147 0 0
          }
        }
      }
    }
  }
  JOINT RightUpLeg
  {
    OFFSET 0.00499725 -0.535 -8.837
    CHANNELS 3 Zrotation Xrotation Yrotation
    JOINT RightLeg
    {
      OFFSET 39.9036 -0.000268477 0.000106433
      CHANNELS 3 Zrotation Xrotation Yrotation
      JOINT RightFoot
      {
        OFFSET 39.6689 1.17892e-005 0
        CHANNELS 3 Zrotation Xrotation Yrotation
        JOINT RightToe
        {
          OFFSET 10.1624 13.6296 0
          CHANNELS 3 Zrotation Xrotation Yrotation
          End Site
          {
            OFFSET 8.38147 0 0
          }
        }
      }
    }
  }
}
MOTION
Frames:	11
Frame Time:	0.0333333
-58.6589 88.8868 -93.2953 84.4194 -79.2029 -1.60301 1.90968 0.240499 0.134258 3.81885 0.485789 0.260574 3.81885 0.485783 0.260556 -2.99954 1.97105 -11.1182 62.6843 -1.31898 13.5988 -177.83 2.72166 -94.9031 -24.8099 3.1961 82.4869 -25.3646 2.89066 -16.149 12.3062 -85.3271 14.566 -177.87 0.368383 73.4946 -2.23976 -2.14473 -84.6988 -22.6279 -2.75897 14.1323 2.04367 80.1868 -2.01267 -0.565718 -4.66224 173.662 -18.4241 1.14928 -0.87827 -1.83327 14.6903 1.47767 90 1.94809e-014 -6.36111e-015 -28.2537 -5.98225 169.407 -45.6103 -0.0995878 0.3154 -0.354642 10.9402 1.41184 90 1.59028e-014 1.43125e-014 
-58.5515 89.4543 -91.295 81.8212 -79.9583 -4.75412 1.96795 0.398435 0.187833 3.93474 0.803526 0.362037 3.93474 0.803529 0.362018 -4.05651 1.99469 -11.6535 62.7908 -1.03214 13.5485 -176.79 2.41594 -95.3551 -20.6136 3.57795 82.808 -23.6196 2.58738 -15.1907 8.68177 -83.6289 10.9427 -176.798 0.177655 72.9236 -4.9253 -0.698879 -83.5899 -23.437 -2.93956 14.5676 2.3287 81.0346 -2.30501 -1.82958 -3.60248 174.182 -18.9268 1.15111 -0.885696 -4.36018 14.8973 2.01243 90 7.95139e-016 1.27222e-014 -25.5502 -7.27646 170.024 -52.3604 -0.126483 0.171426 -0.161392 9.08871 1.034 90 6.36111e-015 -4.77083e-015 
-58.3834 89.8503 -89.2102 80.7814 -80.4782 -6.54156 1.82578 0.547408 0.215142 3.64982 1.10187 0.412944 3.64981 1.10188 0.412933 -4.02482 1.83146 -11.7347 62.3062 -0.814817 14.0106 -176.895 2.12218 -95.3757 -17.9778 5.21929 82.6296 -22.2587 2.34325 -14.3764 7.6675 -82.932 9.90808 -176.845 0.0354936 72.878 -7.32176 0.204873 -82.8514 -24.2803 -3.12799 15.0136 2.63923 82.0508 -2.62164 -3.55492 -2.64577 174.894 -19.7131 1.14586 -0.897315 -6.42002 15.1869 2.51732 90 7.95139e-015 3.18055e-015 -21.6991 -8.03603 171.089 -56.3733 -0.162128 0.0231518 -1.13871 7.01385 0.866548 90 -4.77083e-015 7.95139e-016 
-58.2432 90.2273 -87.2038 80.2914 -80.5466 -7.35845 1.68285 0.672757 0.177774 3.36397 1.35097 0.3359 3.36396 1.35097 0.33589 -4.16406 1.53659 -11.6839 61.7758 -1.05049 14.2167 -176.863 1.68479 -95.2896 -15.8165 6.9086 82.4873 -21.2232 2.16682 -13.7247 7.02538 -82.1432 9.31344 -176.756 -0.227034 72.9807 -9.39716 0.784867 -82.157 -25.7427 -3.47553 15.7841 2.97946 82.9656 -2.98003 -4.51145 -1.84912 175.227 -18.9815 1.13522 -0.946895 -8.57112 15.4442 3.03334 90 -1.15295e-014 -1.27222e-014 -16.7641 -8.77237 171.967 -58.0929 -0.215391 -0.111789 -2.06599 3.99038 0.482814 90 2.62396e-014 -7.95139e-016 
-57.8318 90.4433 -85.0455 79.6381 -80.7744 -8.94869 1.58458 0.83805 0.265421 3.1658 1.68365 0.507787 3.16579 1.68364 0.507783 -4.60976 1.26138 -11.4679 61.555 -1.38527 14.3298 -176.523 1.24956 -95.0679 -13.8622 8.20833 82.1421 -20.4374 2.03353 -13.222 6.13581 -81.1407 8.38175 -176.36 -0.540838 73.2265 -11.4813 1.82596 -81.2399 -26.85 -3.75507 16.3688 3.71008 84.2362 -3.71572 -6.2625 -1.03919 176.35 -19.4653 1.11934 -0.977847 -10.3152 15.736 3.54447 90 -3.97569e-015 -0 -11.0228 -8.66944 174.452 -57.2326 -0.304529 -0.258109 -3.28322 0.39852 -0.0814041 90 7.65321e-015 5.26779e-015 
-57.4256 90.4427 -82.8113 79.8349 -81.1473 -9.76167 1.43973 1.20626 0.356089 2.87289 2.42155 0.68212 2.87288 2.42155 0.68212 -5.05384 0.700594 -11.9322 62.0424 -1.33057 16.0467 -176.227 0.453382 -95.494 -12.3346 8.94477 81.5471 -19.593 1.89991 -12.7069 5.41207 -80.1108 7.70338 -176.048 -1.26667 72.8404 -11.7737 2.47555 -80.8771 -28.5138 -4.19529 17.2223 4.36143 85.0452 -4.36877 -8.51548 -0.399339 177.551 -20.6545 1.10048 -0.989465 -10.9251 16.4486 3.93356 90 2.06736e-014 -1.11319e-014 -4.93584 -7.54762 177.467 -54.1792 -0.414454 -0.38405 -4.78667 -3.27189 -0.800957 90 -7.15625e-015 -4.77083e-015 
-57.0054 90.3784 -80.5694 79.5467 -81.7764 -10.8657 1.25496 1.55224 0.439699 2.49934 3.1142 0.845891 2.49934 3.1142 0.845875 -5.23019 0.541 -11.7718 62.4457 -1.51713 16.3074 -176.123 0.20538 -95.3519 -10.5521 9.70878 81.267 -19.2904 1.85727 -12.4909 5.71799 -79.8855 7.97919 -175.908 -1.43148 73.0495 -12.1473 3.00293 -80.4545 -29.8993 -4.57978 17.9284 5.23673 85.8581 -5.2433 -10.5717 -0.471879 178.475 -21.4822 1.07582 -1.01603 -10.8233 16.3593 3.95517 90 1.98785e-015 -4.77083e-015 0.755296 -5.26411 -179.573 -49.546 -0.508133 -0.452598 -6.85536 -5.16713 -1.27453 90 -6.36111e-015 -2.38542e-015 
-56.6055 90.1432 -78.0808 79.2863 -82.7373 -11.8181 1.13692 1.90112 0.510686 2.25871 3.81243 0.98447 2.2587 3.81241 0.984462 -4.97213 0.340361 -11.5971 61.3313 -1.74775 16.0361 -176.416 0.0511831 -95.1652 -8.18678 9.52122 80.989 -19.0062 1.82419 -12.3205 5.68617 -79.3327 7.85767 -176.177 -1.55702 73.2517 -12.3788 4.14715 -79.9515 -30.5214 -4.76117 18.2409 6.13153 86.3839 -6.1367 -12.7602 -0.640618 179.267 -22.3527 1.04683 -1.03888 -10.8422 15.9668 3.9148 90 3.97569e-015 3.18055e-015 5.58811 -2.85357 -177.256 -44.3699 -0.580533 -0.462449 -8.28813 -5.06999 -1.27665 90 -7.95139e-016 3.97569e-015 
-56.1987 89.8352 -75.1699 79.5754 -84.4345 -11.9643 0.94537 2.3537 0.519592 1.87172 4.71606 1.00163 1.8717 4.71604 1.00162 -5.08616 0.102339 -11.8746 60.8836 -1.55424 16.6949 -176.402 -0.286718 -95.4486 -6.66072 9.8753 80.9135 -19.2752 1.87456 -12.4557 5.94853 -80.1038 8.14356 -176.124 -1.88044 73.0348 -12.1736 4.97836 -79.9297 -30.7564 -4.83311 18.3609 8.01969 87.1735 -8.02117 -15.1435 -0.658295 -179.99 -22.6498 1.01172 -1.09168 -11.4885 15.4796 3.99569 90 0 1.59028e-015 8.49435 0.00722881 -175.838 -39.0095 -0.621889 -0.427513 -11.8373 -4.92974 -1.31717 90 9.54166e-015 7.95139e-015 
-55.8165 89.5583 -71.9279 80.429 -86.161 -11.309 0.949574 2.72532 0.485623 1.87919 5.45874 0.92763 1.87919 5.45873 0.927624 -6.03302 0.015372 -12.0134 60.351 -1.37844 16.6709 -175.514 -0.58084 -95.5609 -5.07355 9.12349 81.1393 -19.801 1.97787 -12.7722 6.55806 -81.0462 8.78288 -175.194 -2.21695 72.9367 -12.059 6.926 -79.7471 -30.6534 -4.80435 18.3041 6.51859 86.5083 -6.52048 -17.237 -0.398329 -179.277 -21.8645 0.968241 -1.17673 -13.0842 15.2253 4.34631 90 1.23246e-014 1.43125e-014 10.1919 2.06726 -175.274 -32.5077 -0.668125 -0.350322 -17.6692 -6.93041 -2.39799 90 1.90833e-014 2.54444e-014 
-55.432 89.1504 -68.2657 87.0645 -87.7115 -4.55003 0.897839 2.92231 0.407076 1.77833 5.85107 0.769847 1.77832 5.85106 0.769829 -6.16662 -0.179543 -12.4227 58.3566 -1.1428 16.716 -175.46 -0.840542 -95.938 -3.8965 8.71633 81.5411 -20.2144 2.06243 -13.0361 6.78942 -81.9058 9.09222 -175.114 -2.55142 72.5797 -12.4393 8.23285 -79.7793 -30.4224 -4.73303 18.1923 5.31731 85.9438 -5.31822 -18.8278 -0.483048 -178.714 -19.4131 0.920423 -1.28556 -15.9216 15.2972 5.02177 90 3.97569e-015 9.54166e-015 10.719 0.956214 -175.62 -28.5567 -0.725448 -0.269872 -13.8178 -6.68824 -2.04535 90 -7.15625e-015 -1.59028e-015 
